<?xml version="1.0" encoding="utf-8"?>
<!-- Generator: Adobe Illustrator 27.9.0, SVG Export Plug-In . SVG Version: 6.00 Build 0)  -->
<svg version="1.1" id="svg4011" xmlns:svg="http://www.w3.org/2000/svg"
	 xmlns="http://www.w3.org/2000/svg" xmlns:xlink="http://www.w3.org/1999/xlink" x="0px" y="0px" viewBox="0 0 207 246.8"
	 style="enable-background:new 0 0 207 246.8;" xml:space="preserve">
<style type="text/css">
	.st0{fill:#FAB716;}
	.st1{fill:#223456;}
	.st2{fill:#F4CCB0;}
	.st3{fill:#6C6D6D;}
	.st4{fill:#898989;}
	.st5{fill:#5A5B5B;}
	.st6{fill:#FFD3AE;}
	.st7{fill:#FCD8C0;}
	.st8{fill:#172E75;}
	.st9{fill:#04102D;}
	.st10{fill:#020D21;}
	.st11{fill:#27375D;}
	.st12{fill:#26375D;}
	.st13{fill:#FFFFFF;}
</style>
<g>
	<g>
		<g>
			<g>
				<g>
					<g>
						<path class="st0" d="M107.5,168.2H76.3c1.6-10-3.4-47-3.4-47l-9.4,21.3l6.6,20.4l-8.9,9.1c0,0-2.6-0.9-8.4-12.6
							c-6.5-13-5.1-28.7,2.9-55.8C60.3,88.2,67,78.8,73.5,76.7c2.1-0.7,24.7-4,24.7-4l8,0l0.3,23.8l0.1,4.3L107.5,168.2z"/>
						<path class="st0" d="M154.8,159.3c-5.8,11.7-8.4,12.6-8.4,12.6l-8.9-9.1l6.6-20.4l-9.4-21.3c0,0-5,36.9-3.4,47h-31.1l0.9-67.3
							l0.1-4.3l0.3-23.8l4.5-0.8c0,0,28.9,5,31,5.6c6.4,2,11.8,10.5,16.3,25.8C161.4,130.5,160.6,147.6,154.8,159.3z"/>
					</g>
					<path class="st1" d="M136.6,173.4H71.3c-2.1,5.1-4.2,11.5-6.4,19.5c-9.1,33.5,18,31,38.9,31s48.2,4.2,39.5-29.9
						C141.2,185.6,139,178.8,136.6,173.4z"/>
					<g>
						<g>
							<path class="st2" d="M116.9,59.3h-26c0.4,4.5,0.5,8.9,0.1,13.2c-0.2,2.1-0.4,3.2-0.8,5h27.3c-0.4-1.9-0.6-3-0.8-5.1
								C116.4,68.1,116.4,63.7,116.9,59.3z"/>
						</g>
					</g>
				</g>
				<g id="laptop_00000025415577630479136990000006853773418698821516_">
					<path class="st3" d="M164.6,180.3H43L37.6,121c-0.2-1.6,1.3-3.1,3.1-3.1h126.2c1.8,0,3.3,1.4,3.1,3.1L164.6,180.3z"/>
					<path class="st4" d="M164.6,181.7H43l-5.5-59.3c-0.2-1.6,1.3-3.1,3.1-3.1h126.2c1.8,0,3.3,1.4,3.1,3.1L164.6,181.7z"/>
					<path class="st5" d="M161.3,185.7h-115c-1.9,0-3.5-1.6-3.5-3.5l0,0c0-0.3,0.2-0.5,0.5-0.5h121c0.3,0,0.5,0.2,0.5,0.5v0
						C164.8,184.1,163.2,185.7,161.3,185.7z"/>
				</g>
				<path class="st6" d="M104.3,54.1c-0.1,0-0.3,0-0.4,0c-0.1,0-0.3,0-0.4,0H104.3z"/>
				<path class="st2" d="M124.5,75.2c-2.5,7.4-10.9,12.3-20.6,12.3c-9.7,0-18.4-4.8-20.8-12.2c4.7-0.8,9.5-2.2,9.5-2.2H115
					C115,73.1,119.7,74.3,124.5,75.2z"/>
			</g>
			<g>
				<g>
					<path class="st7" d="M108.3,43.3c0,6.1-0.1,13.6-0.6,19.9c-0.5,7.2-1.6,12.8-3.6,13.2h0c0,0,0,0-0.1,0c0,0-0.1,0-0.1,0
						c-0.6,0-1.1,0-1.7-0.1c-8.1-0.7-12.2-6.5-16.1-12.9c-2.3-3.8-3.7-9.2-4.3-13.8c-0.4-2.5-0.5-4.8-0.5-6.4
						c0-8.6,3.2-16.2,9.6-20.4c3.4-2.2,7.7-3.5,12.9-3.6c0,0,0,0,0,0h0.1C105.9,19.4,108.3,30.1,108.3,43.3z"/>
					<path class="st7" d="M126.5,43.3c0,2.4-0.4,6.4-1.3,10.4c-0.8,3.5-1.9,7-3.6,9.8c-4.1,6.7-8.4,12.8-17.5,12.9
						c-0.1,0-0.1,0-0.2,0c-0.6,0-1.2-0.5-1.6-1.4c-2.4-4.7-2.7-20.5-2.7-31.7c0-13.2,2.4-23.9,4.3-24c0,0,0,0,0,0h0.1
						C119.1,19.3,126.5,30.1,126.5,43.3z"/>
				</g>
				<path class="st8" d="M90.1,23.3c-3,3-3.3,7.6-4.3,12c-1.5,6.2-3.1,11.9-3.1,11.9l-0.6,1.8c0,0-0.1,0.3-0.2,0.7
					c-0.5-2.3-0.8-4.5-0.8-6C80.6,35.3,83.5,27.7,90.1,23.3z"/>
				<path class="st8" d="M117.8,23.3c2.8,2.9,3.3,7.3,4.4,11.5c1.6,6.3,3.1,12.3,3.1,12.3l0.6,1.8c0,0,0.1,0.3,0.2,0.7
					c0.5-2.3,0.8-4.5,0.8-6C127.3,35.3,124.4,27.7,117.8,23.3z"/>
				<path class="st8" d="M81.2,39.7c0,0-2.1-14.3,3.1-17.8c4.4-3,8.1-3.6,9.5-3.2c2.3,0.6,5.4,9.1,5.4,9.1s-14.5,7.8-16.5,14.8
					C82.2,44,81.7,38.4,81.2,39.7z"/>
				<path class="st8" d="M126.8,39.2c0,0,0.7-15.8-4.1-18c-7.1-3.3-15.5,5.7-15.5,5.7s12.7,5.9,18,11.5
					C126.1,39.3,126.4,38.2,126.8,39.2z"/>
				<path class="st8" d="M126,23.3c1.4,7.7-11.2,13.3-23.4,13.8C87.6,37.8,78,35.1,84.2,21.5c1.6-3.5,8.9-7.7,20.2-7.7
					c6.9,0.2,11.6,1.2,14.8,2.5C124.8,18.6,125.7,21.8,126,23.3z"/>
				<g>
					<path class="st7" d="M123.8,49c0,3.2-0.3,6.2,1.3,6.2c1.6,0,3.9-2.5,4.2-6c0.3-3.1-0.2-5.4-2.6-5.4
						C125.1,43.8,123.8,45.9,123.8,49z"/>
					<path class="st7" d="M84.2,49.2c0,3.2,0.3,6.1-1.3,6.1c-1.6,0-3.9-2.5-4.2-6c-0.3-3.1,0.2-5.4,2.6-5.4
						C82.9,43.8,84.2,46,84.2,49.2z"/>
				</g>
			</g>
		</g>
		<g>
			<g>
				<g>
					<path class="st2" d="M147.8,216.1c3.9,1.4,9,2.3,12.1,3.8c12.4,4.3,6.9,9.8-2,9.4c-3.6-0.3-8.5-1.3-12.6-1.8l-7.3-7.6
						L147.8,216.1z"/>
					<path class="st9" d="M159.9,219.9c2.5,3.3,2,6.3-2,9.4c2.7,1.7,7.6,3.3,10.9,3.6c16.5,1.3,19.6-9.8,11.4-12.8
						C173.7,217.7,163.8,218.2,159.9,219.9z"/>
				</g>
			</g>
			<path class="st10" d="M156.3,223.5c0,2.1,2.2,3.9,4.9,3.9s4.9-1.7,4.9-3.9c0-2.1-2.3-3.1-4.9-3.9
				C157.3,218.5,156.3,221.4,156.3,223.5z"/>
			<path class="st11" d="M153.5,217.4c-0.1-0.6-0.5-1.1-1.1-1.3c-3.6-1-16.7-5-28.4-9.5c-22-8.6-53.9-20.4-74.2-24.8
				c-31.3-6.8-47,20-10.5,31.1c26.4,8,55.9,11.3,76.7,13.6c16.9,1.9,28.4,2.5,32.5,2.8c1,0.1,2-0.5,2.4-1.4
				C152,225.6,153.9,221.1,153.5,217.4z"/>
		</g>
		<g>
			<g>
				<g>
					<path class="st2" d="M59.2,216.1c-3.9,1.4-9,2.3-12.1,3.8c-12.4,4.3-6.9,9.8,2,9.4c3.6-0.3,8.5-1.3,12.6-1.8l7.3-7.6
						L59.2,216.1z"/>
					<path class="st9" d="M47,219.9c-2.5,3.3-2,6.3,2,9.4c-2.7,1.7-7.6,3.3-10.9,3.6c-16.5,1.3-19.6-9.8-11.4-12.8
						C33.3,217.7,43.1,218.2,47,219.9z"/>
				</g>
			</g>
			<path class="st10" d="M50.9,223.5c0,2.1-2.2,3.9-4.9,3.9s-4.9-1.7-4.9-3.9c0-2.1,2.3-3.1,4.9-3.9
				C49.9,218.5,50.9,221.4,50.9,223.5z"/>
			<path class="st11" d="M53.5,217.4c0.1-0.6,0.5-1.1,1.1-1.3c3.6-1,16.7-5,28.4-9.5c22-8.6,53.9-20.4,74.2-24.8
				c31.3-6.8,47,20,10.5,31.1c-26.4,8-55.9,11.3-76.7,13.6c-16.9,1.9-28.4,2.5-32.5,2.8c-1,0.1-2-0.5-2.4-1.4
				C55,225.6,53.1,221.1,53.5,217.4z"/>
		</g>
	</g>
	<g>
		<path class="st12" d="M92.5,87.8c0,0,11,17.1,20.9-1.1"/>
		<polygon class="st13" points="79.5,75.8 88.6,74 102.9,87.8 95.3,99.7 		"/>
		<polygon class="st13" points="125.1,75.2 116.9,73.4 102.9,87.8 113.4,99.7 		"/>
	</g>
</g>
</svg>
