<?xml version="1.0" encoding="utf-8"?>
<!-- Generator: Adobe Illustrator 27.9.0, SVG Export Plug-In . SVG Version: 6.00 Build 0)  -->
<svg version="1.1" id="svg4011" xmlns:svg="http://www.w3.org/2000/svg"
	 xmlns="http://www.w3.org/2000/svg" xmlns:xlink="http://www.w3.org/1999/xlink" x="0px" y="0px" viewBox="0 0 207 400"
	 style="enable-background:new 0 0 207 400;" xml:space="preserve">
<style type="text/css">
	.st0{fill:#F79556;}
	.st1{fill:#0F1F35;}
	.st2{fill:#1D2F4F;}
	.st3{fill:#182A44;}
	.st4{fill:#F9B316;}
	.st5{fill:#0B1238;}
	.st6{fill:#FAB716;}
	.st7{fill:#EC7D40;}
	.st8{fill:#13233A;}
	.st9{fill:#676768;}
	.st10{fill:#1D1D1B;}
	.st11{fill:#1E1735;}
	.st12{fill:#898989;}
	.st13{fill:#303030;}
	.st14{fill:#D66730;}
	.st15{fill:#F7AB14;}
	.st16{fill:#F7A614;}
</style>
<g>
	<path class="st0" d="M114.3,332.6H99.1c0,0.4-0.1,0.8-0.1,1c-0.5,5.4-5.4,20-6.3,22.7c-0.8,2.5-1.1,4.4-0.2,8.7
		c1.9,8.5,10.8,9.2,14,7.2c3.2-2,0.6-4.7-0.2-12.1c-0.6-5.4,1.7-9.1,3.8-15.8C110.7,342.5,112.3,338.1,114.3,332.6z"/>
	<path class="st0" d="M146.7,337c0.1-0.9-0.3-5.1-0.6-8.4c-0.2-2.1-2-3.7-4.2-3.8c-1.7-0.1-3.8-0.4-5.7-1.3
		c-5.1-2.4-10.5-8.9-17.3-15.8l-11.6,13.4c6.9,5.1,11.8,9.2,13.2,10.4c6.8,6.2,13,12.3,13.8,18.5C135,356.3,146.5,338.6,146.7,337z"
		/>
	<path class="st1" d="M91.4,362.5c0-0.3-0.5-4,3.6-5.3c5.3-1.6,10.4-0.3,12.5,3.3c0.7,1.2,0.3,2.9,1.3,5.9c1,2.9,2.8,6.6,4.2,9
		c1.5,2.4,0.8,6.8-0.4,7.8c-1,0.9-5.1,2.9-11.6,2.9c-6.4,0-10.6-1.1-11-5c-0.2-2.6,0.5-5.6,0.9-8C91.3,371.5,91.8,367.1,91.4,362.5z
		"/>
	<path class="st2" d="M145.1,171.8c-1.3-5.7-5.5-15.5-5.5-15.5s-4.3,2.8-17.1,7.1c-12.8,4.3-16.6,2.3-17.9,3.7
		c-1.4,1.4-3.7,34.6-4.1,40.5c-0.5,5.8,0.4,53,0.1,58.4c-0.1,2.2-5.9,79.2-5.9,79.2c-0.1,0.5,0.1,1,0.6,1.3c1.1,0.8,3.6,2.2,7.4,2.9
		c4,0.8,12.1,0.6,12.4-1.6c0.3-1.9,11.4-51.3,11.6-53.2c0.5-5.8,2.1-8.8,1.3-19.4c-0.3-3.8-0.5-8.3,1.5-14.3c2-6,9.9-34.2,15.9-61.4
		C146.6,193.7,146.6,178,145.1,171.8z"/>
	<path class="st2" d="M133,320.8c0,0-34.6-36.2-38.8-39.5c-6.9-5.3-10.1-6.6-10.9-9c-0.8-2.4,6-16.9,9.9-25.8
		c3.8-8.7,11.6-28.1,14-32.7c2.4-4.5,2.6-47,2.6-47s-23.6,2.6-28.2,1.8s-3.9,1.6-3.5,4.4l0,0.5c0,0,0.3,8.8-1.9,14.8
		c-3.3,9.1-7.7,21.8-14.1,41.8s-10,36.1-9.5,41.3c0.5,5.3,1,7.7,5.6,12.5c0.9,0.9,56.9,52.6,56.9,52.6s5.3-2.7,11.1-8.3
		C131.2,323.4,133,320.8,133,320.8z"/>
	<path class="st3" d="M94.9,317.8c0.9,0.7,1.9,1.4,2.8,2.2c0.9,0.7,1.8,1.5,2.7,2.2c1.8,1.5,3.6,3,5.3,4.6c1.7,1.5,3.5,3.1,5.2,4.7
		c1.7,1.6,3.4,3.2,5.1,4.8l-1-0.1c0.1-0.1,0.2-0.1,0.4-0.2c0.1-0.1,0.3-0.1,0.4-0.2c0.3-0.1,0.5-0.3,0.8-0.4
		c0.2-0.1,0.5-0.3,0.7-0.4l0.4-0.2l0.4-0.2c1-0.6,2-1.2,2.9-1.9c0.2-0.2,0.5-0.3,0.7-0.5c0.2-0.2,0.5-0.3,0.7-0.5l0.7-0.5l0.7-0.5
		c0.5-0.3,0.9-0.7,1.4-1c0.5-0.4,0.9-0.7,1.4-1.1c-0.2,0.2-0.4,0.4-0.6,0.7c-0.2,0.2-0.4,0.4-0.6,0.6l-0.6,0.6
		c-0.2,0.2-0.4,0.4-0.6,0.6c-0.8,0.8-1.7,1.6-2.6,2.4c-0.9,0.8-1.8,1.5-2.8,2.2l-0.4,0.3l-0.4,0.2c-0.2,0.2-0.5,0.3-0.7,0.5
		c-0.3,0.2-0.5,0.3-0.8,0.5c-0.1,0.1-0.3,0.2-0.4,0.2c-0.1,0.1-0.3,0.1-0.4,0.2l-0.5,0.3l-0.5-0.4c-1.7-1.5-3.5-3.1-5.2-4.7
		c-1.7-1.6-3.4-3.2-5.1-4.8c-1.7-1.6-3.3-3.3-4.9-4.9c-0.8-0.8-1.6-1.7-2.4-2.5C96.4,319.6,95.6,318.7,94.9,317.8z"/>
	<path class="st4" d="M73.7,74.7c0,0-4.5,0.8-6.5,9.5c-1.6,6.8-9,34.3-10.2,41c-1.1,6-3.2,11.4-0.4,17.6c3.2,7,5.6,7.9,8.7,7
		c5.4-1.6,10.1-7.7,11.3-15.9C77.8,125.8,78,75.7,73.7,74.7z"/>
	<path class="st4" d="M143.5,78.3c0.9-0.9,4.6,2,6.3,6.6c1.7,4.6,3.3,12.9,3.8,22.9c0.5,10.1-0.8,26.9-1.7,32
		c-1.1,6.9-4.8,17.5-9.5,15.4c-4.7-2.1-10.5-26.2-10-34.8C132.8,113.9,134.7,87.2,143.5,78.3z"/>
	<path class="st5" d="M111.7,14.6c-1-0.2-1.5-0.6-2.2-0.7c-5.6-0.7-12.5,4.1-15.1,6.7c-6.2,6-8.4,14.9-8.6,20.8
		c-0.3,10,2.7,17.5,3.4,19c2.2,5.2,8.6,15.9,20,20.6c9.4,3.9,18.1,1.3,20.8,0.6c3.2-0.9,7.9-2.4,11.9-6.7c1.3-1.4,4.9-5.7,5.6-12.2
		c0.7-6.9-1.4-12.5-3.8-16.7c-2.6-4.5-6.7-6.7-11.2-13.4c-3.1-4.6-0.6-12.2-13.9-17.5C114.3,13.3,112.8,14.8,111.7,14.6z"/>
	<path class="st6" d="M76.4,73.5c5.2-1.4,12.2-3.4,17.2-5.1c5-1.7,9.8-4.1,16.9-3.1c5.5,0.8,11.8,3.9,19.3,7.1
		c7.6,3.1,13.4,4,14.8,6.1c1.4,2.1-5.9,14.8-7.2,23.3c-1.8,11.4-1.4,24-0.2,30.4c1.2,6.4,3.7,21.1,6.1,28.1c0.7,2.1,2.5,5.9,3,11.5
		c0.5,5.6-0.1,5.6-1.6,5.6c-1.5,0-8.4-0.2-17.2,2.1s-21.2,4.2-28.5,4.8c-7.3,0.6-20,0.3-21-0.2s0.5-5.7,0.3-8.4
		c-0.2-2.7-0.4-4.2-0.4-5.2c0-1-0.3-24.1,0.7-28.1c1-4-3.1-24.6-4.2-31.6c-0.8-4.7-3.6-18.7-3.3-28.9C71.2,77.1,71.2,74.8,76.4,73.5
		z"/>
	<path class="st7" d="M82.8,113.6c0,0,6.7-9.1,9.5-10.2c2.9-1.1,12.3-3.4,13.9-2.7c1.6,0.7,1.7,2.1,0.1,2.9
		c-1.6,0.8,0.5,10.5-1.2,12.1c-1.6,1.6-8.9,4.9-11.8,5.6c-2.9,0.6-4.8,1.5-8.4,0.9C81.3,121.6,81.2,116.8,82.8,113.6z"/>
	<path class="st8" d="M112.3,377c-0.1,0.2-0.3,0.4-0.5,0.5c-0.2,0.2-0.4,0.3-0.5,0.4c-0.4,0.3-0.8,0.5-1.2,0.7
		c-0.8,0.4-1.7,0.6-2.7,0.8c-0.9,0.2-1.9,0.3-2.8,0.5c-0.5,0.1-0.9,0.1-1.4,0.2c-0.5,0-0.9,0.1-1.4,0.1c-1.9,0.1-3.8,0.1-5.7-0.2
		c-0.9-0.1-1.9-0.3-2.8-0.6c-0.5-0.1-0.9-0.3-1.3-0.5c-0.2-0.1-0.4-0.2-0.6-0.3c-0.1,0-0.1-0.1-0.1-0.1c0,0,0,0-0.1,0l0,0l0,0
		c0,0,0,0,0,0c0,0,0,0,0,0c0,0,0,0,0,0c0,0,0,0,0,0c0,0,0,0,0,0c0,0,0,0,0,0c0.1,0.1,0.2,0.1,0.3,0.2c-0.1-0.1-0.2-0.2-0.3-0.2
		c0,0,0,0,0,0c0,0,0,0,0,0c0,0,0,0,0,0c0,0,0,0,0,0c0,0,0,0,0,0l0,0l0,0l0,0c0,0,0,0,0.1,0.1c0,0,0.1,0.1,0.1,0.1
		c0.2,0.2,0.4,0.3,0.6,0.4c0.4,0.3,0.8,0.5,1.3,0.7c0.9,0.4,1.8,0.7,2.8,0.9c1.9,0.4,3.9,0.5,5.9,0.4c0.2,0,0.5,0,0.7,0
		c0.2,0,0.5,0,0.7-0.1c0.5-0.1,1-0.1,1.5-0.2c0.5-0.1,1-0.2,1.4-0.3c0.5-0.1,1-0.2,1.4-0.3c1-0.3,1.9-0.6,2.7-1.2
		c0.4-0.3,0.8-0.6,1.2-0.9C111.9,377.8,112.2,377.4,112.3,377z"/>
	<path class="st8" d="M103.6,360.8c0.2,0.1,0.3-0.2,0.2-0.3c-0.1-0.1-0.3-0.2-0.4-0.3c-0.3-0.2-0.7-0.4-1.1-0.6
		c-0.8-0.3-1.6-0.4-2.4-0.4c-0.2,0-0.4,0-0.6,0.1c-0.2,0-0.4,0.1-0.6,0.1c-0.4,0.1-0.8,0.2-1.2,0.4c-0.5,0.2-1,0.5-1.5,0.9
		c-0.1,0.1,0,0.3,0.2,0.3c0.5-0.1,1.1-0.3,1.6-0.4c0.4-0.1,0.7-0.1,1.1-0.2c0.2,0,0.4,0,0.5-0.1c0.2,0,0.4,0,0.5,0
		c0.7,0,1.4,0,2.1,0.1C102.6,360.5,103.1,360.6,103.6,360.8z"/>
	<path class="st8" d="M104.4,363.9c0.2,0.1,0.3-0.2,0.2-0.3c-0.1-0.1-0.3-0.2-0.4-0.3c-0.4-0.2-0.8-0.4-1.2-0.6
		c-0.8-0.3-1.8-0.4-2.7-0.4c-0.9,0-1.8,0.3-2.6,0.6c-0.6,0.3-1.1,0.6-1.6,1c-0.1,0.1,0,0.3,0.2,0.3c0.6-0.2,1.2-0.3,1.7-0.5
		c0.8-0.2,1.6-0.3,2.4-0.3c0.8,0,1.6,0,2.4,0.1C103.3,363.6,103.8,363.7,104.4,363.9z"/>
	<path class="st8" d="M105.3,367.2c0.2,0.1,0.3-0.2,0.2-0.3c-0.2-0.2-0.4-0.3-0.6-0.4c-0.4-0.3-0.8-0.5-1.3-0.6
		c-0.9-0.3-1.9-0.5-2.9-0.5c-0.1,0-0.2,0-0.4,0c-0.1,0-0.2,0-0.4,0l-0.4,0.1c-0.1,0-0.2,0-0.4,0.1l-0.2,0l-0.2,0.1
		c-0.1,0-0.2,0.1-0.4,0.1c-0.2,0.1-0.5,0.2-0.7,0.3c-0.7,0.3-1.3,0.7-1.8,1.1c-0.1,0.1,0,0.3,0.2,0.3c0.7-0.2,1.3-0.4,2-0.5
		c0.1,0,0.2-0.1,0.3-0.1l0.3-0.1c0.1,0,0.2,0,0.3-0.1l0.2,0c0,0,0,0,0,0l0.2,0c0.1,0,0.2,0,0.3,0l0.3,0c0.1,0,0.2,0,0.3,0
		c0.1,0,0.2,0,0.3,0c0.9,0,1.7,0,2.6,0.2C104,366.9,104.7,367,105.3,367.2z"/>
	<path class="st8" d="M106.9,371c0.2,0.1,0.3-0.2,0.2-0.3c-0.2-0.2-0.4-0.3-0.6-0.5c-0.5-0.3-1-0.5-1.5-0.7c-1-0.4-2.2-0.5-3.3-0.5
		c-0.6,0-1.1,0.1-1.7,0.2c-0.5,0.1-1.1,0.3-1.6,0.5c-0.7,0.3-1.4,0.7-2.1,1.2c-0.2,0.1,0,0.4,0.2,0.3c0.8-0.2,1.5-0.5,2.2-0.6
		c0.5-0.1,1-0.2,1.5-0.3c0.1,0,0.2,0,0.4-0.1c0.1,0,0.2,0,0.4,0c0.2,0,0.5,0,0.7-0.1c1,0,2,0,3,0.2
		C105.4,370.5,106.1,370.7,106.9,371z"/>
	<path class="st9" d="M112.9,122.2H97.5c-0.7,0-1.2-0.5-1.2-1.1L96,90.4c0-2.4,1.9-2.5,2.6-2.5h13.8c1,0,2.3,0.2,2.3,2.6l-0.4,30.5
		C114.1,121.7,113.6,122.2,112.9,122.2z"/>
	<g>
		<g>
			<path class="st10" d="M108.7,41.4C108.7,41.4,108.7,41.3,108.7,41.4c-0.1-0.1-0.2-0.1-0.2-0.1c-0.1,0-0.2,0-0.3,0
				c-0.2,0-0.3,0-0.5,0c-0.3,0-0.7,0.1-1,0.2c-0.2,0-0.4,0.1-0.5,0.2c-0.2,0-0.4,0.1-0.6,0.1c-0.4,0.1-0.8,0.1-1.1,0.1
				c-0.4,0-0.8,0-1.2,0c-0.4,0-0.8-0.2-1.2-0.4c-0.4-0.2-0.7-0.4-0.9-0.7c-0.2-0.3-0.4-0.7-0.5-1l0.1,0c0.3,0.2,0.6,0.4,0.9,0.6
				c0.3,0.2,0.6,0.3,0.9,0.4c0.3,0.1,0.6,0.2,0.9,0.3c0.3,0.1,0.7,0.2,1,0.2c0.3,0,0.7,0,1,0c0.2,0,0.4,0,0.5,0
				c0.2,0,0.3-0.1,0.5-0.1c0.4-0.1,0.8-0.1,1.1-0.1c0.2,0,0.4,0,0.6,0.1C108.5,41.1,108.7,41.2,108.7,41.4L108.7,41.4z"/>
		</g>
	</g>
	<g>
		<g>
			<path class="st10" d="M116.2,42.3c0.2,0,0.4,0,0.5,0c0.2,0,0.4,0,0.5,0.1c0.4,0.1,0.7,0.2,1.1,0.3l0.5,0.2
				c0.2,0.1,0.3,0.1,0.5,0.1c0.3,0.1,0.7,0.1,1,0.2c0.3,0,0.7,0,1,0c0.2,0,0.3,0,0.5-0.1c0.2,0,0.3,0,0.5-0.1c0.3,0,0.6-0.1,0.9-0.2
				c0.3-0.1,0.6-0.2,1-0.4l0.1,0.1c-0.3,0.7-1,1.2-1.8,1.4c-0.4,0.1-0.8,0.2-1.2,0.1c-0.4,0-0.8-0.1-1.1-0.2
				c-0.4-0.1-0.7-0.2-1.1-0.3c-0.3-0.1-0.7-0.3-1-0.5c-0.3-0.2-0.6-0.3-0.9-0.4C116.9,42.5,116.6,42.4,116.2,42.3L116.2,42.3z"/>
		</g>
	</g>
	<g>
		<g>
			<path class="st10" d="M116.6,39.2c0.2-0.4,0.6-0.7,0.9-1c0.4-0.3,0.8-0.5,1.2-0.7c0.2-0.1,0.4-0.2,0.7-0.2c0.1,0,0.2,0,0.4-0.1
				c0.1,0,0.1,0,0.2,0l0.2,0c0.5,0,1,0,1.4,0c0.9,0.1,1.9,0.3,2.7,0.7c0.4,0.2,0.8,0.4,1.2,0.7c0.4,0.3,0.7,0.5,1,0.9l-0.1,0.1
				c-0.4-0.2-0.7-0.4-1.1-0.6l-0.3-0.1l-0.3-0.1c-0.2-0.1-0.4-0.1-0.6-0.2c-0.1,0-0.2-0.1-0.3-0.1c-0.1,0-0.2,0-0.3-0.1
				c-0.2,0-0.4-0.1-0.6-0.1c-0.1,0-0.2,0-0.3,0l-0.3,0l-0.2,0l-0.2,0l-0.3,0c-0.4,0-0.8,0.1-1.2,0.2c-0.4,0.1-0.8,0.2-1.1,0.3
				c-0.4,0.1-0.8,0.2-1.2,0.2c-0.4,0.1-0.9,0.2-1.3,0.2L116.6,39.2z"/>
		</g>
	</g>
	<path class="st5" d="M143.8,74.6c1.2-1.2,2.3-2.5,3.3-3.9c0.9-1.4,1.7-3,2.3-4.6c0.6-1.6,0.9-3.3,1.1-5c0.2-1.7,0.1-3.4-0.1-5.1
		c-0.2-1.7-0.6-3.4-1.1-5c-0.5-1.6-1.2-3.2-2.1-4.7c-0.2-0.4-0.4-0.8-0.6-1.1l-0.3-0.6c-0.1-0.2-0.2-0.4-0.4-0.6
		c-0.5-0.8-1.1-1.5-1.6-2.1c-1.2-1.3-2.5-2.5-3.7-3.6c-1.3-1.1-2.5-2.3-3.6-3.5c-0.3-0.3-0.6-0.6-0.8-0.9l-0.4-0.5l-0.4-0.5
		c-0.3-0.3-0.5-0.6-0.8-0.9l-0.4-0.5l-0.2-0.2c-0.1-0.1-0.1-0.2-0.2-0.2c-0.9-1.2-1.6-2.7-2.3-4.2c-0.4-0.8-0.8-1.5-1.2-2.3
		c-0.2-0.4-0.4-0.7-0.7-1.1c-0.2-0.4-0.5-0.7-0.7-1.1c-1-1.4-2.3-2.7-3.7-3.8c-0.7-0.5-1.4-1.1-2.2-1.5l-0.6-0.3
		c-0.2-0.1-0.4-0.2-0.6-0.3l-1.2-0.6c-0.4-0.2-0.8-0.3-1.2-0.5l-1.2-0.5c-0.8-0.3-1.7-0.5-2.6-0.7c-0.9-0.2-1.8-0.2-2.7-0.1
		c-0.9,0.1-1.7,0.4-2.6,0.4c0.4,0.1,0.9,0,1.3,0c0.4,0,0.9-0.1,1.3-0.1c0.9,0,1.7,0.2,2.5,0.4c0.8,0.2,1.6,0.6,2.4,0.9l1.2,0.5
		c0.4,0.2,0.8,0.4,1.1,0.6l1.1,0.6c0.2,0.1,0.4,0.2,0.5,0.3l0.5,0.4c0.7,0.4,1.3,1,2,1.5c1.2,1.1,2.3,2.3,3.1,3.7
		c0.9,1.3,1.6,2.8,2.2,4.3c0.7,1.5,1.3,3.1,2.4,4.6c0.1,0.1,0.1,0.2,0.2,0.3l0.2,0.3l0.4,0.5c0.3,0.3,0.5,0.7,0.8,1l0.4,0.5l0.4,0.5
		c0.3,0.3,0.6,0.7,0.9,1c1.2,1.3,2.5,2.5,3.7,3.6c1.3,1.1,2.5,2.2,3.6,3.4c0.5,0.6,1,1.2,1.5,1.8c0.1,0.2,0.2,0.3,0.3,0.5l0.3,0.5
		c0.2,0.3,0.4,0.7,0.6,1c0.8,1.4,1.5,2.9,2.1,4.3c0.6,1.5,1,3,1.3,4.6c0.3,1.6,0.4,3.2,0.4,4.8c0,1.6-0.2,3.2-0.6,4.7
		c-0.4,1.6-1,3.1-1.7,4.6c-0.4,0.7-0.8,1.5-1.2,2.2C144.8,73.3,144.4,73.9,143.8,74.6z"/>
	<path class="st7" d="M98.1,45.8c0,0-0.2,8.2,0.1,13.5s0.6,8.9,1.2,10.6c0.9,2.6,3,4.8,8.2,5.2c2.7,0.2,7.2-0.3,9.2-2.7
		c1.7-2,0.8-7,1.4-12.9c0.5-5.8,0.7-12,0.5-14.4C118.5,42.6,104.4,42.4,98.1,45.8z"/>
	<path class="st0" d="M108.8,19.4c-4.7,0.4-9.9,4.4-11.1,8.6c-1,3.6-1.7,7.7-2,9.9c-0.7,6,0.3,11,2.6,16c2.3,4.9,6.7,7.8,8.5,8.7
		c1.3,0.7,3.9,1.2,5.8,0.3c2.8-1.3,5.4-2.4,8.1-5.5c2.7-3,4.9-6.3,5.7-12c0.3-2.4,0.3-5.1,0.7-7.2c1.3-6.7-1.6-10.8-3.9-14.2
		C121.9,21.9,116.7,18.8,108.8,19.4z"/>
	<path class="st11" d="M108.1,16.3c0,0,0.2,0.1,0.4,0.2c1.2,0.7,2.2,3.1,2.2,5.9c0,1.4-0.1,2.4-0.5,3.7c-1.7,6.1-10.5,5.5-13.6,11.2
		c-2.6,4.8-3.6,2-4-0.1c-1.7-9-1.8-15.9,11.8-20.8C105.4,16,107.2,16,108.1,16.3z"/>
	<path class="st11" d="M110.2,16.8c1.4-0.5,7.9-2.6,15.9,6.5c4.5,5.1,3.4,11.9,3,14.5c-0.3,2-1.8,3.2-2.1,3.2c-0.3,0,0.4-3-1.6-6.4
		c-4-6.6-13.7-3.2-16.7-12.5c-0.4-1.2-0.5-2.6-0.4-4.2C108.4,17.2,109.5,17.1,110.2,16.8z"/>
	<path class="st0" d="M92.3,39.4c0.1-0.3,0.4-2.1,2.4-2.1c2,0,5.4,3.8,4.8,6.5c-0.5,2.6-1.3,5.6-3.5,5.1
		C93.9,48.4,91.2,42.9,92.3,39.4z"/>
	<path class="st3" d="M122.2,309.6c-3.4-2.9-6.7-5.9-9.9-9c-3.2-3-6.4-6.1-9.6-9.2c-1.6-1.5-3.2-3.1-4.8-4.6c-1.6-1.5-3.3-3-4.9-4.5
		c-3.2-3.1-6.4-6.2-9.5-9.4c3.7,2.6,7.2,5.4,10.6,8.2c0.9,0.7,1.7,1.4,2.6,2.1c0.9,0.7,1.7,1.4,2.6,2.2c0.4,0.4,0.8,0.7,1.3,1.1
		c0.4,0.4,0.8,0.7,1.2,1.1c0.8,0.8,1.6,1.5,2.4,2.3c3.2,3.1,6.3,6.3,9.3,9.5C116.5,302.8,119.4,306.2,122.2,309.6z"/>
	<path class="st1" d="M138,324c-0.2-0.5,0.2-0.6,0.8-0.5c1.9,0.3,5.1,0.7,6.9,1c2.6,0.5,6.5,0.8,7.1,3.3c0.8,3.1-0.1,10,0.1,13.7
		c0.2,3.7,1.3,10.8,1.5,15.2c0.1,4.4-2.4,10.8-5.7,16.5c-3.3,5.7-4.3,6-5.9,6.1c-1.6,0.2-3.4-0.7-4.9-2.1c-1.5-1.5-1-10.4-0.8-13.1
		c0.2-4.9-6.4-17.7-8.3-22.5c-0.3-0.7,0.1-1.5,0.9-1.8c1.7-0.6,6.1-0.8,8.6-4C140.2,333.1,139.5,327.3,138,324z"/>
	<path class="st8" d="M129.5,347.2c0-0.4,0.1-0.8,0.3-1.2c0.1-0.2,0.2-0.3,0.3-0.5c0.1-0.2,0.3-0.3,0.4-0.5c0.1-0.1,0.3-0.3,0.5-0.4
		c0.2-0.1,0.3-0.2,0.5-0.3c0.4-0.2,0.7-0.3,1.1-0.5c0.4-0.2,0.7-0.3,1.1-0.4c0.4-0.1,0.8-0.2,1.1-0.3c0.4-0.1,0.8-0.2,1.1-0.2
		c0.4-0.1,0.8-0.1,1.1-0.1l0,0.1c-0.3,0.2-0.7,0.3-1,0.5l-1,0.5c-0.3,0.2-0.7,0.3-1,0.5c-0.3,0.2-0.6,0.4-0.9,0.6
		c-0.3,0.2-0.6,0.4-0.8,0.7c-0.1,0.1-0.3,0.2-0.4,0.3c-0.1,0.1-0.3,0.2-0.4,0.3c-0.6,0.4-1.2,0.7-1.9,1.1L129.5,347.2z"/>
	<path class="st8" d="M131,350.5c0-0.4,0.1-0.8,0.3-1.2c0.1-0.2,0.2-0.3,0.3-0.5c0.1-0.2,0.3-0.3,0.4-0.5c0.1-0.1,0.3-0.3,0.5-0.4
		c0.2-0.1,0.3-0.2,0.5-0.3c0.4-0.2,0.7-0.3,1.1-0.5c0.4-0.2,0.7-0.3,1.1-0.4c0.4-0.1,0.8-0.2,1.1-0.3c0.4-0.1,0.8-0.2,1.1-0.2
		c0.4-0.1,0.8-0.1,1.1-0.1l0,0.1c-0.3,0.2-0.7,0.3-1,0.5l-1,0.5c-0.3,0.2-0.7,0.3-1,0.5c-0.3,0.2-0.6,0.4-0.9,0.6
		c-0.3,0.2-0.6,0.4-0.8,0.7c-0.1,0.1-0.3,0.2-0.4,0.3c-0.1,0.1-0.3,0.2-0.4,0.3c-0.6,0.4-1.2,0.7-1.9,1.1L131,350.5z"/>
	<path class="st8" d="M132.5,353.7c0-0.4,0.1-0.8,0.3-1.2c0.1-0.2,0.2-0.3,0.3-0.5c0.1-0.2,0.3-0.3,0.4-0.5c0.1-0.1,0.3-0.3,0.5-0.4
		c0.2-0.1,0.3-0.2,0.5-0.3c0.4-0.2,0.7-0.3,1.1-0.5c0.4-0.2,0.7-0.3,1.1-0.4c0.4-0.1,0.8-0.2,1.1-0.3c0.4-0.1,0.8-0.2,1.1-0.2
		c0.4-0.1,0.8-0.1,1.1-0.1l0,0.1c-0.3,0.2-0.7,0.3-1,0.5l-1,0.5c-0.3,0.2-0.7,0.3-1,0.5c-0.3,0.2-0.6,0.4-0.9,0.6
		c-0.3,0.2-0.6,0.4-0.8,0.7c-0.1,0.1-0.3,0.2-0.4,0.3c-0.1,0.1-0.3,0.2-0.4,0.3c-0.6,0.4-1.2,0.7-1.9,1.1L132.5,353.7z"/>
	<path class="st8" d="M134,357c0-0.4,0.1-0.8,0.3-1.2c0.1-0.2,0.2-0.3,0.3-0.5c0.1-0.2,0.3-0.3,0.4-0.5c0.1-0.1,0.3-0.3,0.5-0.4
		c0.2-0.1,0.3-0.2,0.5-0.3c0.4-0.2,0.7-0.3,1.1-0.5c0.4-0.2,0.7-0.3,1.1-0.4c0.4-0.1,0.8-0.2,1.1-0.3c0.4-0.1,0.8-0.2,1.1-0.2
		c0.4-0.1,0.8-0.1,1.1-0.1l0,0.1c-0.3,0.2-0.7,0.3-1,0.5l-1,0.5c-0.3,0.2-0.7,0.3-1,0.5c-0.3,0.2-0.6,0.4-0.9,0.6
		c-0.3,0.2-0.6,0.4-0.8,0.7c-0.1,0.1-0.3,0.2-0.4,0.3c-0.1,0.1-0.3,0.2-0.4,0.3c-0.6,0.4-1.2,0.7-1.9,1.1L134,357z"/>
	<path class="st8" d="M147.7,328c-0.1,2.1-0.1,4.1-0.1,6.2c0,2.1,0.2,4.1,0.4,6.2c0.2,2,0.5,4.1,0.8,6.1c0.3,2.1,0.5,4.1,0.5,6.2
		c0.1,2.1,0,4.2-0.3,6.3c-0.3,2.1-0.8,4.2-1.6,6.1c-0.8,2-1.7,3.9-2.8,5.7c-0.6,0.9-1.2,1.8-1.9,2.6c-0.7,0.8-1.4,1.6-2.2,2.3
		c0.4-0.4,0.7-0.8,1-1.2c0.3-0.4,0.6-0.9,0.9-1.3c0.5-0.9,1.1-1.8,1.5-2.7c0.2-0.5,0.4-0.9,0.7-1.4c0.2-0.5,0.4-0.9,0.6-1.4
		c0.4-1,0.7-1.9,1-2.9c1.3-3.9,1.7-7.9,1.5-12c-0.1-4.1-0.8-8.2-1-12.4c0-1-0.1-2.1,0-3.1c0-1,0.1-2.1,0.2-3.1
		C147,332.1,147.3,330.1,147.7,328z"/>
	<path class="st3" d="M100.6,250.5c-0.4-4.1-0.7-8.2-1-12.3c-0.3-4.1-0.5-8.2-0.6-12.3c-0.1-2.1,0-4.1,0-6.2c0-2.1,0.1-4.1,0.2-6.2
		c0.2-4.1,0.4-8.2,0.9-12.3c0.5,4.1,0.8,8.2,1,12.3c0.1,2,0.2,4.1,0.2,6.1l0.1,6.1c0.1,4.1,0.1,8.2,0,12.3
		C101.4,242.3,101.2,246.4,100.6,250.5z"/>
	<path class="st12" d="M113,123.1H97.5c-0.7,0-1.2-0.5-1.2-1.2l-0.4-31.4c0-0.6,0.5-1.2,1.2-1.2h16.4c0.7,0,1.2,0.5,1.2,1.2
		l-0.5,31.4C114.2,122.6,113.7,123.1,113,123.1z"/>
	<path class="st13" d="M100.7,95.6h-0.7c-0.9,0-1.7-0.8-1.7-1.7v-0.5c0-0.9,0.8-1.7,1.7-1.7h0.7c0.9,0,1.7,0.8,1.7,1.7v0.5
		C102.4,94.9,101.6,95.6,100.7,95.6z"/>
	<path class="st0" d="M130.1,119.3c0,0-3.7-4.5-5.2-8c-1.4-3.5-1.8-5.1-3.4-6.3c-1.7-1.2-4.2-4-6.2-4.5c-2-0.5-7.2-1.9-8.5-1.5
		c-1.3,0.4-1.2,1.3-0.8,1.8c0.4,0.5,1.8,1.4,3.8,1.9c2,0.5,4,1.2,6.4,3.1s-1.3-0.1-2.7-0.6c-1.4-0.5-12.1-1.7-13.5-1.2
		c-1.4,0.4-1.8,1-1.8,1.6c0,1.1,1.4,1.3,0.7,1.5c-0.7,0.1-1.6,0.5-1.8,1.3c-0.1,0.7-0.1,1.3,0.5,2c0.7,0.7,1.3,0.7,1.5,0.9
		c0.3,0.2-0.5,0.7-0.6,1.1c-0.2,0.4-0.5,1.2,0.5,2.1c1,0.8,7.3,2.8,9.3,3.4c2,0.5,4.2,1.9,5.7,2.9c1.5,1.1,4.2,3.7,6.4,4.5
		c2.2,0.8,3.3,1.1,5.3,1.2C127.9,126.4,131.8,121.8,130.1,119.3z"/>
	<path class="st14" d="M116.5,111.3c-0.7-0.2-1.5-0.4-2.2-0.6c-0.7-0.2-1.4-0.5-2.1-0.7c-0.7-0.2-1.4-0.5-2-0.7
		c-0.2-0.1-0.3-0.1-0.5-0.2c-0.2,0-0.3-0.1-0.5-0.1c-0.4-0.1-0.7-0.2-1.1-0.2l-2.2-0.4l-2.2-0.4c-1.5-0.3-2.9-0.6-4.4-0.9l0-0.1
		c1.5,0.1,3,0.3,4.5,0.4l2.2,0.2l2.2,0.3l1.1,0.1c0.2,0,0.4,0.1,0.6,0.1c0.2,0,0.4,0.1,0.6,0.1c0.8,0.2,1.5,0.4,2.1,0.8
		c0.7,0.3,1.3,0.6,2,1C115.4,110.4,116,110.8,116.5,111.3L116.5,111.3z"/>
	<path class="st14" d="M114.8,115.8c-0.7-0.1-1.3-0.3-2-0.4c-0.6-0.2-1.3-0.4-1.9-0.6c-0.6-0.2-1.2-0.4-1.8-0.6
		c-0.3-0.1-0.6-0.2-0.9-0.3l-0.2-0.1l-0.2-0.1l-0.5-0.1c-0.6-0.1-1.3-0.3-1.9-0.5l-1.9-0.5c-1.3-0.3-2.6-0.7-3.8-1l0-0.1
		c1.3,0.2,2.6,0.4,3.9,0.6l3.9,0.6l0.5,0.1l0.2,0l0.3,0c0.4,0.1,0.7,0.1,1,0.2c0.7,0.2,1.3,0.4,1.9,0.7c0.6,0.3,1.2,0.6,1.8,0.9
		C113.7,114.9,114.3,115.3,114.8,115.8L114.8,115.8z"/>
	<path class="st4" d="M76.6,134c0.1-1.9,0.1-3.7,0-5.6l0-5.6c0-3.7-0.1-7.4-0.1-11.2c0-3.7,0-7.4,0-11.2c0-3.7,0-7.5,0.1-11.2
		c0.6,3.7,0.9,7.4,1.1,11.2c0.2,3.7,0.3,7.5,0.3,11.2c0,3.7-0.1,7.5-0.3,11.2c-0.1,0.9-0.1,1.9-0.2,2.8l-0.1,1.4l-0.1,1.4
		C77.2,130.3,77,132.1,76.6,134z"/>
	<path class="st4" d="M134.9,138.1c-0.6-1.8-1.1-3.7-1.6-5.6c-0.4-1.9-0.8-3.8-1.1-5.7c-0.1-1-0.3-1.9-0.4-2.9c-0.1-1-0.2-2-0.2-2.9
		c0-1,0-2,0-2.9l0.1-1.5l0.1-1.5l0.1-1.5l0.1-1.5c0-0.5,0.1-1,0.2-1.5c0.1-0.5,0.1-1,0.2-1.4c0.3-1.9,0.6-3.9,1-5.8
		c0.8-3.8,1.8-7.6,3.2-11.3c-0.7,3.8-1.4,7.6-1.9,11.5c-0.1,0.5-0.1,1-0.2,1.4l-0.2,1.4c-0.1,1-0.2,1.9-0.3,2.9l-0.1,0.7l-0.1,0.7
		c0,0.5-0.1,1-0.1,1.4l-0.1,1.4l-0.1,1.4l-0.1,1.4l-0.1,1.4l-0.1,1.4l0,0.7l0,0.4l0,0.4c0,1.9,0.1,3.8,0.3,5.7
		C133.8,130.4,134.3,134.2,134.9,138.1z"/>
	<path class="st0" d="M129.6,118.6c0,0,3.6,4.6,6.6,8.2c3,3.6,6.4,5.9,8.8,8.2c4.7,4.5,4.5,7.8,4.7,9.3c0.1,1.4-2.1,13-7.9,11
		c-5.7-2-8.5-6.9-10.4-11.6c-1.9-4.7-5.1-13-6.8-16.4c-1.7-3.3-7.1-4.1-3.2-7.1C125.2,117.3,127.5,118.1,129.6,118.6z"/>
	<path class="st15" d="M143.1,156.3c-0.5,0-1-0.1-1.5-0.3c-6.1-2.2-8.9-7.3-10.9-12.1c-0.2-0.5-0.4-1-0.6-1.6l0,0
		c-0.1-0.4,0.2-0.7,0.6-0.6l0,0c0.8,0.2,1.5,0.3,2.2,0.3c2.5,0,4.7-1.4,6.5-4c1.3-1.9,1.5-4.5,1.4-6.4v0c0-0.4,0.5-0.6,0.8-0.4l0,0
		c0.3,0.3,0.6,0.5,0.9,0.8c1.1,0.9,2,1.7,2.9,2.6c4.5,4.4,4.7,7.7,4.9,9.3c0,0.1,0,0.3,0,0.4c0.1,1.2-1.1,7.5-3.9,10.4
		C145.4,155.8,144.3,156.3,143.1,156.3C143.1,156.3,143.1,156.3,143.1,156.3z"/>
	<path class="st16" d="M141.6,156.1c-1.6-0.2-3.2-0.9-4.5-1.8c-1.4-0.9-2.5-2.1-3.5-3.4c-1-1.3-1.7-2.7-2.3-4.1
		c-0.3-0.7-0.5-1.5-0.7-2.2l-0.1-0.6c0-0.2-0.1-0.4-0.1-0.6c-0.1-0.4-0.2-0.8-0.2-1.1c0.4,0.6,0.8,1.3,1.2,2l1.1,2
		c0.8,1.3,1.6,2.6,2.4,3.8c0.9,1.2,1.9,2.3,3,3.3c0.3,0.3,0.6,0.5,0.9,0.7c0.1,0.1,0.3,0.2,0.5,0.3l0.5,0.3c0.3,0.2,0.6,0.4,1,0.7
		C140.9,155.6,141.3,155.8,141.6,156.1z"/>
	<path class="st16" d="M141.6,131.3c0.6,0.3,1.2,0.7,1.8,1c0.6,0.4,1.1,0.8,1.7,1.2c0.3,0.2,0.5,0.4,0.8,0.6
		c0.3,0.2,0.5,0.5,0.8,0.7c0.5,0.5,1,1,1.4,1.5c0.2,0.3,0.4,0.6,0.6,0.8c0.1,0.1,0.2,0.3,0.3,0.4c0.1,0.1,0.2,0.3,0.3,0.4
		c0.3,0.6,0.6,1.2,0.9,1.9c0.2,0.7,0.4,1.3,0.4,2c0.1,0.7,0,1.4-0.2,2c-0.1-0.7-0.3-1.3-0.6-1.9c-0.2-0.6-0.5-1.2-0.8-1.7
		c-0.3-0.6-0.7-1.1-1-1.6c-0.2-0.3-0.4-0.5-0.6-0.8l-0.3-0.4l-0.1-0.2l-0.2-0.2c-0.4-0.5-0.8-1-1.2-1.5c-0.2-0.2-0.4-0.5-0.6-0.7
		l-0.7-0.7C143.3,133.4,142.4,132.4,141.6,131.3z"/>
	<path class="st7" d="M88.1,118c-0.3,0.5-2.5,7.3-3.8,10c-1.3,2.8-4.5,10-7.9,13.5c-3.4,3.5-8.5,9.1-12.5,8.6
		c-3.3-0.4-8-9.1-7.4-12.6c0.9-5.1,4.9-7.1,9.6-10.4c3-2.1,6.2-4.9,9.3-7.7c4.8-4.3,5.6-4.9,8-7.1C85.6,110.3,90.9,112.3,88.1,118z"
		/>
	<path class="st15" d="M64.1,151c-0.2,0-0.4,0-0.6,0c-1.5-0.2-3-1.7-4-3c-2.3-3-4.5-7.9-4.1-10.5c0.8-4.7,4.1-6.9,8-9.6
		c0.7-0.5,1.4-0.9,2.1-1.4c1.1-0.8,2.3-1.7,3.6-2.7l0,0c0.4-0.3,0.9,0,0.8,0.5l0,0c-0.5,1.4-0.6,2.8-0.5,4c0.3,3.7,1.9,6,5.1,7.3
		c1.1,0.5,2.3,0.7,3.5,0.7c0.7,0,1.5-0.1,2.2-0.3l0,0c0.4-0.1,0.8,0.3,0.6,0.7l0,0c-1.3,2.3-2.6,4.1-3.8,5.3
		c-0.2,0.2-0.4,0.4-0.5,0.6C72.9,146.1,68.2,151,64.1,151z"/>
	<path class="st16" d="M59.1,131.1c0.5-0.9,1.3-1.7,2-2.4c0.8-0.7,1.6-1.3,2.4-1.9c0.4-0.3,0.8-0.6,1.3-0.8c0.4-0.3,0.9-0.5,1.3-0.8
		c0.9-0.5,1.8-1,2.8-1.4c-0.6,0.9-1.3,1.6-2,2.4c-0.2,0.2-0.4,0.4-0.6,0.5c-0.2,0.2-0.4,0.3-0.6,0.5c-0.4,0.3-0.8,0.6-1.3,0.9
		c-0.9,0.6-1.7,1.1-2.6,1.6C61,130.2,60.1,130.7,59.1,131.1z"/>
</g>
</svg>
