<?xml version="1.0" encoding="utf-8"?>
<!-- Generator: Adobe Illustrator 27.9.0, SVG Export Plug-In . SVG Version: 6.00 Build 0)  -->
<svg version="1.1" id="Layer_1" xmlns="http://www.w3.org/2000/svg" xmlns:xlink="http://www.w3.org/1999/xlink" x="0px" y="0px"
	 viewBox="0 0 225 225" style="enable-background:new 0 0 225 225;" xml:space="preserve">
<style type="text/css">
	.st0{fill:#005596;}
	.st1{fill:#FFFFFF;}
</style>
<g>
	<circle class="st0" cx="112.5" cy="112.5" r="100.1"/>
	<g>
		<g>
			<path class="st1" d="M157.2,74.4H67.8c-5.2,0-9.5,4.3-9.5,9.5v57.2c0,5.3,4.3,9.5,9.5,9.5h89.4c5.2,0,9.5-4.3,9.5-9.5V83.9
				C166.7,78.6,162.4,74.4,157.2,74.4z M157.2,79.6c-3.2,3.2-40.6,40.8-42.2,42.3c-1.3,1.3-3.8,1.3-5.1,0L67.8,79.6H157.2z
				 M63,140.9V84.1l28.3,28.4L63,140.9z M67.8,145.4l28.1-28.2l9.4,9.4c3.9,3.9,10.6,3.9,14.4,0l9.4-9.4l28.1,28.2H67.8z M162,140.9
				l-28.3-28.4L162,84.1V140.9z"/>
		</g>
	</g>
</g>
</svg>
