<svg id="Layer_1" enable-background="new 0 0 24 24" height="300" viewBox="0 0 24 24" width="300" xmlns="http://www.w3.org/2000/svg" version="1.1" xmlns:xlink="http://www.w3.org/1999/xlink" xmlns:svgjs="http://svgjs.dev/svgjs"><g width="100%" height="100%" transform="matrix(1,0,0,1,0,0)"><g><path d="m19 22h-3c-1.7 0-3-1.3-3-3v-14c0-1.7 1.3-3 3-3h3c1.7 0 3 1.3 3 3v14c0 1.7-1.3 3-3 3zm-3-18c-.6 0-1 .4-1 1v14c0 .6.4 1 1 1h3c.6 0 1-.4 1-1v-14c0-.6-.4-1-1-1z" fill="#004054" fill-opacity="1" data-original-color="#000000ff" stroke="none" stroke-opacity="1"/></g><g><path d="m8 22h-3c-1.7 0-3-1.3-3-3v-6c0-1.7 1.3-3 3-3h3c1.7 0 3 1.3 3 3v6c0 1.7-1.3 3-3 3zm-3-10c-.6 0-1 .4-1 1v6c0 .6.4 1 1 1h3c.6 0 1-.4 1-1v-6c0-.6-.4-1-1-1z" fill="#004054" fill-opacity="1" data-original-color="#000000ff" stroke="none" stroke-opacity="1"/></g><g><path d="m8 8h-3c-1.7 0-3-1.3-3-3s1.3-3 3-3h3c1.7 0 3 1.3 3 3s-1.3 3-3 3zm-3-4c-.6 0-1 .4-1 1s.4 1 1 1h3c.6 0 1-.4 1-1s-.4-1-1-1z" fill="#004054" fill-opacity="1" data-original-color="#000000ff" stroke="none" stroke-opacity="1"/></g></g></svg>